name 900006_2.mot
datacolumns 141
datarows 4
range 1.00833333 1.03333330
endheader

                time	           pelvis_tx	           pelvis_ty	           pelvis_tz	         pelvis_tilt	         pelvis_list	     pelvis_rotation	       hip_flexion_r	     hip_adduction_r	      hip_rotation_r	        knee_angle_r	       ankle_angle_r	    subtalar_angle_r	         mtp_angle_r	       hip_flexion_l	     hip_adduction_l	      hip_rotation_l	        knee_angle_l	       ankle_angle_l	    subtalar_angle_l	         mtp_angle_l	    lumbar_extension	      lumbar_bending	     lumbar_rotation	    ground_marker_px	    ground_marker_py	    ground_marker_pz	    ground_marker_px	    ground_marker_py	    ground_marker_pz	    ground_marker_px	    ground_marker_py	    ground_marker_pz	    ground_marker_px	    ground_marker_py	    ground_marker_pz	    ground_marker_px	    ground_marker_py	    ground_marker_pz	    ground_marker_px	    ground_marker_py	    ground_marker_pz	    ground_marker_px	    ground_marker_py	    ground_marker_pz	    ground_marker_px	    ground_marker_py	    ground_marker_pz	    ground_marker_px	    ground_marker_py	    ground_marker_pz	    ground_marker_px	    ground_marker_py	    ground_marker_pz	    ground_marker_px	    ground_marker_py	    ground_marker_pz	    ground_marker_px	    ground_marker_py	    ground_marker_pz	    ground_marker_px	    ground_marker_py	    ground_marker_pz	    ground_marker_px	    ground_marker_py	    ground_marker_pz	    ground_marker_px	    ground_marker_py	    ground_marker_pz	    ground_marker_px	    ground_marker_py	    ground_marker_pz	    ground_marker_px	    ground_marker_py	    ground_marker_pz	    ground_marker_px	    ground_marker_py	    ground_marker_pz	    ground_marker_px	    ground_marker_py	    ground_marker_pz	    ground_marker_px	    ground_marker_py	    ground_marker_pz	    ground_marker_px	    ground_marker_py	    ground_marker_pz	    ground_marker_px	    ground_marker_py	    ground_marker_pz	    ground_marker_px	    ground_marker_py	    ground_marker_pz	    ground_marker_px	    ground_marker_py	    ground_marker_pz	    ground_marker_px	    ground_marker_py	    ground_marker_pz	    ground_marker_px	    ground_marker_py	    ground_marker_pz	    ground_marker_px	    ground_marker_py	    ground_marker_pz	    ground_marker_px	    ground_marker_py	    ground_marker_pz	    ground_marker_px	    ground_marker_py	    ground_marker_pz	    ground_marker_px	    ground_marker_py	    ground_marker_pz	    ground_marker_px	    ground_marker_py	    ground_marker_pz	    ground_marker_px	    ground_marker_py	    ground_marker_pz	    ground_marker_px	    ground_marker_py	    ground_marker_pz	    ground_marker_px	    ground_marker_py	    ground_marker_pz	    ground_marker_px	    ground_marker_py	    ground_marker_pz	    ground_marker_px	    ground_marker_py	    ground_marker_pz	    ground_marker_px	    ground_marker_py	    ground_marker_pz	    ground_marker_px	    ground_marker_py	    ground_marker_pz	    ground_marker_px	    ground_marker_py	    ground_marker_pz	
          1.00833333	          0.82933450	          0.84635419	         -0.25616899	          4.91359234	          0.77034891	          6.15137243	         -6.78977156	         -4.16794443	         -5.20831776	         -4.60227919	          5.87035322	          0.00000000	          0.00000000	         -6.99360275	          0.76252955	          1.21171772	         -1.81086802	          3.59027004	          0.00000000	          0.00000000	         -4.67841101	         -0.48532918	          1.12804091	          0.75917250	          0.76282114	         -0.25100601	          0.76650470	          0.76096618	         -0.18137670	          0.75184029	          0.76467609	         -0.32063535	          0.75790060	          0.42452407	         -0.16479920	          0.73960733	          0.41905841	         -0.32392484	          0.71953756	          0.06506671	         -0.15777741	          0.71565175	          0.06592894	         -0.32992819	          0.82933450	          0.84635419	         -0.25616899	          0.84096950	          0.84341073	         -0.14567931	          0.81769955	          0.84929764	         -0.36665866	          0.65285075	          0.86837161	         -0.20437171	          0.64712125	          0.86824733	         -0.25769323	          0.75881350	          0.42728096	         -0.10837388	          0.73489618	          0.41975623	         -0.37972191	          0.73852265	          0.41918391	         -0.22034365	          0.75078785	          0.42286298	         -0.26429409	          0.71344471	          0.06643927	         -0.12080117	          0.70333755	          0.06734795	         -0.36425889	          0.71911931	          0.06133048	         -0.19133724	          0.71753359	          0.06578127	         -0.29643264	          0.67448074	          0.05113464	         -0.14908227	          0.66991508	          0.04690199	         -0.30852136	          0.79749990	          1.19606066	         -0.26101729	          0.80845618	          1.09450126	         -0.26677930	          0.69014090	          1.26223469	         -0.23870198	          0.80728155	          1.19526863	         -0.20466699	          0.79384983	          1.19718897	         -0.31200030	          0.80616331	          0.04815573	         -0.14472766	          0.80420387	          0.04483368	         -0.35089976	          0.89161062	          0.55575252	         -0.15398049	          0.85950601	          0.57285297	         -0.39576951	          0.84380096	          0.60033017	         -0.11906426	          0.84560597	          0.61417776	         -0.32670853	          0.82704985	          0.54381442	         -0.11720357	          0.83336043	          0.55715525	         -0.32160553	          0.84682864	          0.18095487	         -0.13617341	          0.69417048	          0.17402509	         -0.44978565	          0.76951665	          0.16662946	         -0.15026802	          0.70725065	          0.16202179	         -0.37231490	
          1.01666665	          0.82930142	          0.84639764	         -0.25616279	          4.93542099	          0.77648759	          6.16183662	         -6.81949329	         -4.16742897	         -5.20704937	         -4.59558868	          5.87146330	          0.00000000	          0.00000000	         -7.02181530	          0.77328879	          1.19717062	         -1.79828191	          3.58213234	          0.00000000	          0.00000000	         -4.73466015	         -0.60698253	          1.05419219	          0.75917232	          0.76283705	         -0.25099880	          0.76651692	          0.76097596	         -0.18137094	          0.75182766	          0.76469815	         -0.32062665	          0.75787079	          0.42452708	         -0.16481961	          0.73956341	          0.41905481	         -0.32387626	          0.71950513	          0.06508376	         -0.15775412	          0.71564633	          0.06594358	         -0.32993385	          0.82930142	          0.84639764	         -0.25616279	          0.84095663	          0.84344429	         -0.14567034	          0.81764621	          0.84935105	         -0.36665523	          0.65278149	          0.86832136	         -0.20434317	          0.64704096	          0.86825049	         -0.25769758	          0.75879556	          0.42727911	         -0.10839425	          0.73482764	          0.41974741	         -0.37967137	          0.73877728	          0.41890451	         -0.22045407	          0.75093311	          0.42297378	         -0.26395208	          0.71342039	          0.06646007	         -0.12077668	          0.70331669	          0.06736753	         -0.36425883	          0.71924728	          0.06120709	         -0.19130449	          0.71751714	          0.06579067	         -0.29643473	          0.67449260	          0.05107221	         -0.14898135	          0.66986716	          0.04697441	         -0.30848143	          0.79741108	          1.19608712	         -0.26098874	          0.80859238	          1.09465742	         -0.26659214	          0.69017392	          1.26229417	         -0.23863114	          0.80724192	          1.19554245	         -0.20472738	          0.79394495	          1.19724405	         -0.31197050	          0.80616933	          0.04816274	         -0.14476077	          0.80417907	          0.04485999	         -0.35092115	          0.89158881	          0.55570614	         -0.15405177	          0.85948014	          0.57287037	         -0.39578581	          0.84350020	          0.60047442	         -0.11916931	          0.84553158	          0.61427349	         -0.32679224	          0.82686281	          0.54372710	         -0.11729832	          0.83334774	          0.55722076	         -0.32155877	          0.84683001	          0.18094356	         -0.13621750	          0.69414335	          0.17403364	         -0.44977593	          0.76956004	          0.16670053	         -0.15046819	          0.70723432	          0.16206297	         -0.37228981	
          1.02499998	          0.82926762	          0.84642929	         -0.25615734	          4.95933390	          0.78212124	          6.16731262	         -6.84990644	         -4.16842556	         -5.20059347	         -4.61281204	          5.89558935	          0.00000000	          0.00000000	         -7.04580927	          0.78069133	          1.16621959	         -1.79540563	          3.57811046	          0.00000000	          0.00000000	         -4.76642561	         -0.75099939	          1.11039543	          0.75917399	          0.76283872	         -0.25099668	          0.76652515	          0.76097310	         -0.18136963	          0.75182277	          0.76470441	         -0.32062373	          0.75784481	          0.42453259	         -0.16483007	          0.73956406	          0.41907042	         -0.32385024	          0.71933460	          0.06512297	         -0.15771642	          0.71566027	          0.06593983	         -0.32995689	          0.82926762	          0.84642929	         -0.25615734	          0.84093279	          0.84346879	         -0.14566991	          0.81760240	          0.84938979	         -0.36664474	          0.65271115	          0.86825466	         -0.20431408	          0.64698231	          0.86823058	         -0.25767973	          0.75878167	          0.42728230	         -0.10840481	          0.73479271	          0.41976050	         -0.37964234	          0.73875225	          0.41920814	         -0.22094274	          0.75120604	          0.42269725	         -0.26399970	          0.71325761	          0.06650601	         -0.12073795	          0.70330888	          0.06736934	         -0.36427379	          0.71911728	          0.06119628	         -0.19125785	          0.71748424	          0.06570808	         -0.29644698	          0.67215079	          0.05230190	         -0.14914310	          0.66978967	          0.04704990	         -0.30855861	          0.79732662	          1.19613147	         -0.26093128	          0.80872083	          1.09481359	         -0.26634464	          0.69010174	          1.26237702	         -0.23865010	          0.80730695	          1.19584024	         -0.20471448	          0.79389793	          1.19727600	         -0.31194413	          0.80615228	          0.04815892	         -0.14478891	          0.80416763	          0.04488460	         -0.35094792	          0.89158499	          0.55566347	         -0.15410346	          0.85946208	          0.57289469	         -0.39579862	          0.84332407	          0.60046613	         -0.11901820	          0.84530967	          0.61422211	         -0.32674721	          0.82677901	          0.54376203	         -0.11736240	          0.83330500	          0.55722117	         -0.32152900	          0.84681511	          0.18095042	         -0.13624272	          0.69413322	          0.17403886	         -0.44976214	          0.76954365	          0.16664580	         -0.15045862	          0.70722234	          0.16208647	         -0.37217727	
          1.03333330	          0.82922733	          0.84644002	         -0.25615731	          4.97996473	          0.78508699	          6.16740370	         -6.87040186	         -4.16985655	         -5.19291925	         -4.64731646	          5.93053579	          0.00000000	          0.00000000	         -7.05473471	          0.78623235	          1.10732913	         -1.80824172	          3.57889724	          0.00000000	          0.00000000	         -4.77676153	         -0.89703822	          1.20045733	          0.75916380	          0.76282400	         -0.25100127	          0.76651531	          0.76095742	         -0.18137430	          0.75181228	          0.76469058	         -0.32062826	          0.75783801	          0.42454121	         -0.16483226	          0.73962992	          0.41910771	         -0.32383323	          0.71911579	          0.06518149	         -0.15768945	          0.71570820	          0.06591454	         -0.32999331	          0.82922733	          0.84644002	         -0.25615731	          0.84089172	          0.84347838	         -0.14568302	          0.81756300	          0.84940165	         -0.36663160	          0.65264869	          0.86818349	         -0.20429792	          0.64694625	          0.86819082	         -0.25763291	          0.75878280	          0.42729133	         -0.10840714	          0.73480093	          0.41979527	         -0.37962040	          0.73942572	          0.41838682	         -0.22005887	          0.75160664	          0.42239100	         -0.26396793	          0.71304315	          0.06657086	         -0.12071049	          0.70332181	          0.06735177	         -0.36429730	          0.71896750	          0.06122097	         -0.19122393	          0.71738726	          0.06570401	         -0.29645011	          0.67093974	          0.05295920	         -0.14933199	          0.66989577	          0.04694954	         -0.30850878	          0.79725349	          1.19617355	         -0.26085141	          0.80860835	          1.09483016	         -0.26598111	          0.68997663	          1.26245630	         -0.23860462	          0.80727923	          1.19601345	         -0.20455590	          0.79369152	          1.19717383	         -0.31187126	          0.80612123	          0.04814662	         -0.14480327	          0.80417985	          0.04489027	         -0.35097456	          0.89158177	          0.55564809	         -0.15412720	          0.85945296	          0.57291776	         -0.39581028	          0.84317023	          0.60037363	         -0.11898364	          0.84513623	          0.61408192	         -0.32677239	          0.82709599	          0.54395586	         -0.11713130	          0.83333582	          0.55721807	         -0.32154647	          0.84679621	          0.18098366	         -0.13623540	          0.69414264	          0.17403069	         -0.44974747	          0.76953137	          0.16661660	         -0.15043379	          0.70712185	          0.16213445	         -0.37215170	
